<svg width="16" height="16" viewBox="0 0 16 16" fill="none" xmlns="http://www.w3.org/2000/svg">
<path d="M8.0044 8.5C7.79313 8.5 7.61458 8.42812 7.46875 8.28438C7.32292 8.14062 7.25 7.9625 7.25 7.75V1.25C7.25 1.0375 7.32145 0.859374 7.46435 0.715624C7.60727 0.571874 7.78435 0.5 7.9956 0.5C8.20687 0.5 8.38542 0.571874 8.53125 0.715624C8.67708 0.859374 8.75 1.0375 8.75 1.25V7.75C8.75 7.9625 8.67855 8.14062 8.53565 8.28438C8.39273 8.42812 8.21565 8.5 8.0044 8.5ZM8 15.5C7.02778 15.5 6.11713 15.3153 5.26806 14.9458C4.41898 14.5764 3.68009 14.0773 3.0514 13.4486C2.42269 12.8199 1.92361 12.081 1.55417 11.2319C1.18472 10.3829 1 9.47222 1 8.5C1 7.68647 1.13889 6.89629 1.41667 6.12944C1.69444 5.36259 2.09028 4.66667 2.60417 4.04167C2.74306 3.86111 2.91667 3.76042 3.125 3.73958C3.33333 3.71875 3.51389 3.78472 3.66667 3.9375C3.80556 4.09028 3.88194 4.26736 3.89583 4.46875C3.90972 4.67014 3.86111 4.84722 3.75 5C3.3409 5.5 3.0303 6.04861 2.81819 6.64583C2.60606 7.24306 2.5 7.86111 2.5 8.5C2.5 10.0321 3.03318 11.3318 4.09954 12.3991C5.16592 13.4664 6.46453 14 7.99538 14C9.52624 14 10.8264 13.4664 11.8958 12.3991C12.9653 11.3318 13.5 10.0321 13.5 8.5C13.5 7.84722 13.3889 7.22569 13.1667 6.63542C12.9444 6.04514 12.6319 5.49306 12.2292 4.97917C12.1042 4.82639 12.0486 4.64931 12.0625 4.44792C12.0764 4.24653 12.1597 4.06944 12.3125 3.91667C12.4514 3.76389 12.625 3.70139 12.8333 3.72917C13.0417 3.75694 13.2207 3.85667 13.3704 4.02835C13.9013 4.66223 14.3056 5.36111 14.5833 6.125C14.8611 6.88889 15 7.68056 15 8.5C15 9.47222 14.8153 10.3829 14.4458 11.2319C14.0764 12.081 13.5773 12.8199 12.9486 13.4486C12.3199 14.0773 11.581 14.5764 10.7319 14.9458C9.88287 15.3153 8.97222 15.5 8 15.5Z" fill="#9AA7B3"/>
</svg>
