<svg width="12" height="17" viewBox="0 0 12 17" fill="none" xmlns="http://www.w3.org/2000/svg">
<g clip-path="url(#clip0_19_1474)">
<mask id="mask0_19_1474" style="mask-type:alpha" maskUnits="userSpaceOnUse" x="0" y="0" width="12" height="17">
<path d="M10.5228 9.9228C9.5016 11.0892 8.5452 12.3096 7.8516 13.6956L6.7056 15.9888C6.4152 16.5708 5.5848 16.5708 5.2944 15.9888L4.1484 13.6956C3.4548 12.3096 2.4984 11.0892 1.4772 9.9228C0.5592 8.874 0 7.5048 0 6C0 2.6868 2.6868 0 6 0C9.3132 0 12 2.6868 12 6C12 7.5048 11.4408 8.874 10.5228 9.9228Z" fill="white"/>
</mask>
<g mask="url(#mask0_19_1474)">
<path d="M10.5228 9.9228C9.5016 11.0892 8.5452 12.3096 7.8516 13.6956L6.7056 15.9888C6.4152 16.5708 5.5848 16.5708 5.2944 15.9888L4.1484 13.6956C3.4548 12.3096 2.4984 11.0892 1.4772 9.9228C0.5592 8.874 0 7.5048 0 6C0 2.6868 2.6868 0 6 0C9.3132 0 12 2.6868 12 6C12 7.5048 11.4408 8.874 10.5228 9.9228Z" fill="#4058FF"/>
</g>
<ellipse cx="5.9999" cy="5.6" rx="1.6" ry="1.6" fill="white"/>
</g>
<defs>
<clipPath id="clip0_19_1474">
<rect width="12" height="16.8" fill="white"/>
</clipPath>
</defs>
</svg>
