<svg width="12" height="12" viewBox="0 0 12 12" fill="none" xmlns="http://www.w3.org/2000/svg">
<g id="mode_off_on_FILL0_wght400_GRAD0_opsz20 2">
<path id="Vector" d="M6.00244 5.99995C5.87568 5.99995 5.76855 5.95683 5.68105 5.87058C5.59355 5.78433 5.5498 5.67745 5.5498 5.54995V1.64995C5.5498 1.52245 5.59268 1.41558 5.67842 1.32933C5.76417 1.24308 5.87042 1.19995 5.99717 1.19995C6.12393 1.19995 6.23105 1.24308 6.31855 1.32933C6.40605 1.41558 6.4498 1.52245 6.4498 1.64995V5.54995C6.4498 5.67745 6.40693 5.78433 6.32119 5.87058C6.23544 5.95683 6.12919 5.99995 6.00244 5.99995ZM5.9998 10.2C5.41647 10.2 4.87008 10.0891 4.36064 9.86745C3.85119 9.64579 3.40786 9.34634 3.03064 8.96911C2.65342 8.5919 2.35397 8.14856 2.1323 7.63911C1.91064 7.12967 1.7998 6.58328 1.7998 5.99995C1.7998 5.51183 1.88314 5.03772 2.0498 4.57761C2.21647 4.11751 2.45397 3.69995 2.7623 3.32495C2.84564 3.21662 2.9498 3.1562 3.0748 3.1437C3.1998 3.1312 3.30814 3.17078 3.3998 3.26245C3.48314 3.35412 3.52897 3.46037 3.5373 3.5812C3.54564 3.70203 3.51647 3.80828 3.4498 3.89995C3.20435 4.19995 3.01798 4.52912 2.89072 4.88745C2.76344 5.24578 2.6998 5.61662 2.6998 5.99995C2.6998 6.91923 3.01971 7.69906 3.65953 8.33941C4.29935 8.97977 5.07852 9.29995 5.99703 9.29995C6.91555 9.29995 7.69564 8.97977 8.3373 8.33941C8.97897 7.69906 9.2998 6.91923 9.2998 5.99995C9.2998 5.60828 9.23314 5.23537 9.0998 4.8812C8.96647 4.52703 8.77897 4.19578 8.5373 3.88745C8.4623 3.79578 8.42897 3.68953 8.4373 3.5687C8.44564 3.44787 8.49564 3.34162 8.5873 3.24995C8.67064 3.15828 8.7748 3.12078 8.8998 3.13745C9.0248 3.15412 9.13222 3.21396 9.22205 3.31696C9.54055 3.69729 9.78314 4.11662 9.9498 4.57495C10.1165 5.03328 10.1998 5.50828 10.1998 5.99995C10.1998 6.58328 10.089 7.12967 9.8673 7.63911C9.64564 8.14856 9.34619 8.5919 8.96897 8.96911C8.59175 9.34634 8.14842 9.64579 7.63897 9.86745C7.12953 10.0891 6.58314 10.2 5.9998 10.2Z" fill="#9AA7B3"/>
</g>
</svg>
