<svg width="60" height="84" viewBox="0 0 60 84" fill="none" xmlns="http://www.w3.org/2000/svg">
<mask id="mask0_82_572" style="mask-type:alpha" maskUnits="userSpaceOnUse" x="0" y="0" width="60" height="83">
<path d="M52.614 49.614C47.508 55.446 42.726 61.548 39.258 68.478L33.528 79.944C32.076 82.854 27.924 82.854 26.472 79.944L20.742 68.478C17.274 61.548 12.492 55.446 7.386 49.614C2.796 44.37 0 37.524 0 30C0 13.434 13.434 0 30 0C46.566 0 60 13.434 60 30C60 37.524 57.204 44.37 52.614 49.614Z" fill="white"/>
</mask>
<g mask="url(#mask0_82_572)">
<path d="M52.614 49.614C47.508 55.446 42.726 61.548 39.258 68.478L33.528 79.944C32.076 82.854 27.924 82.854 26.472 79.944L20.742 68.478C17.274 61.548 12.492 55.446 7.386 49.614C2.796 44.37 0 37.524 0 30C0 13.434 13.434 0 30 0C46.566 0 60 13.434 60 30C60 37.524 57.204 44.37 52.614 49.614Z" fill="url(#paint0_linear_82_572)"/>
</g>
<circle cx="30" cy="28" r="8" fill="white"/>
<defs>
<linearGradient id="paint0_linear_82_572" x1="44.7592" y1="12.229" x2="4.1061" y2="59.7292" gradientUnits="userSpaceOnUse">
<stop stop-color="#05DCD7"/>
<stop offset="0.5" stop-color="#05A0F5"/>
<stop offset="0.99" stop-color="#EB64FA"/>
</linearGradient>
</defs>
</svg>
